<svg width="210" height="48" viewBox="0 0 210 48" fill="none" xmlns="http://www.w3.org/2000/svg">
<path d="M23.2109 12.0938C23.2109 15.6719 22.0391 18.4141 19.6953 20.3203C17.3516 22.2266 14.0156 23.1797 9.6875 23.1797H6.125V36H0.523438V1.73438H10.3906C14.6719 1.73438 17.875 2.60938 20 4.35938C22.1406 6.10938 23.2109 8.6875 23.2109 12.0938ZM6.125 18.4688H9.10156C11.9766 18.4688 14.0859 17.9688 15.4297 16.9688C16.7734 15.9688 17.4453 14.4062 17.4453 12.2812C17.4453 10.3125 16.8438 8.84375 15.6406 7.875C14.4375 6.90625 12.5625 6.42188 10.0156 6.42188H6.125V18.4688ZM45.4475 36L44.3459 32.3906H44.1584C42.9084 33.9688 41.6506 35.0469 40.385 35.625C39.1194 36.1875 37.4944 36.4688 35.51 36.4688C32.9631 36.4688 30.9709 35.7812 29.5334 34.4062C28.1116 33.0312 27.4006 31.0859 27.4006 28.5703C27.4006 25.8984 28.3928 23.8828 30.3772 22.5234C32.3616 21.1641 35.385 20.4219 39.4475 20.2969L43.9241 20.1562V18.7734C43.9241 17.1172 43.5334 15.8828 42.7522 15.0703C41.9866 14.2422 40.7913 13.8281 39.1663 13.8281C37.8381 13.8281 36.5647 14.0234 35.3459 14.4141C34.1272 14.8047 32.9553 15.2656 31.8303 15.7969L30.0491 11.8594C31.4553 11.125 32.9944 10.5703 34.6663 10.1953C36.3381 9.80469 37.9163 9.60938 39.4006 9.60938C42.6975 9.60938 45.1819 10.3281 46.8538 11.7656C48.5413 13.2031 49.385 15.4609 49.385 18.5391V36H45.4475ZM37.2444 32.25C39.2444 32.25 40.8459 31.6953 42.0491 30.5859C43.2678 29.4609 43.8772 27.8906 43.8772 25.875V23.625L40.5491 23.7656C37.9553 23.8594 36.0647 24.2969 34.8772 25.0781C33.7053 25.8438 33.1194 27.0234 33.1194 28.6172C33.1194 29.7734 33.4631 30.6719 34.1506 31.3125C34.8381 31.9375 35.8694 32.25 37.2444 32.25ZM69.9809 9.60938C71.0903 9.60938 72.0044 9.6875 72.7231 9.84375L72.1841 14.9766C71.4028 14.7891 70.5903 14.6953 69.7466 14.6953C67.5434 14.6953 65.7544 15.4141 64.3794 16.8516C63.02 18.2891 62.3403 20.1562 62.3403 22.4531V36H56.8325V10.0781H61.145L61.8716 14.6484H62.1528C63.0122 13.1016 64.1294 11.875 65.5044 10.9688C66.895 10.0625 68.3872 9.60938 69.9809 9.60938ZM86.9675 32.0156C88.3112 32.0156 89.655 31.8047 90.9987 31.3828V35.5312C90.3894 35.7969 89.6003 36.0156 88.6316 36.1875C87.6784 36.375 86.6862 36.4688 85.655 36.4688C80.4362 36.4688 77.8269 33.7188 77.8269 28.2188V14.25H74.2878V11.8125L78.0847 9.79688L79.9597 4.3125H83.3581V10.0781H90.7409V14.25H83.3581V28.125C83.3581 29.4531 83.6862 30.4375 84.3425 31.0781C85.0144 31.7031 85.8894 32.0156 86.9675 32.0156ZM101.47 36H95.9619V10.0781H101.47V36ZM95.6338 3.21094C95.6338 2.22656 95.8994 1.46875 96.4306 0.9375C96.9775 0.40625 97.7509 0.140625 98.7509 0.140625C99.7197 0.140625 100.47 0.40625 101.001 0.9375C101.548 1.46875 101.821 2.22656 101.821 3.21094C101.821 4.14844 101.548 4.89062 101.001 5.4375C100.47 5.96875 99.7197 6.23438 98.7509 6.23438C97.7509 6.23438 96.9775 5.96875 96.4306 5.4375C95.8994 4.89062 95.6338 4.14844 95.6338 3.21094ZM119.581 36.4688C115.659 36.4688 112.675 35.3281 110.628 33.0469C108.597 30.75 107.581 27.4609 107.581 23.1797C107.581 18.8203 108.644 15.4688 110.769 13.125C112.909 10.7812 115.995 9.60938 120.027 9.60938C122.761 9.60938 125.222 10.1172 127.409 11.1328L125.745 15.5625C123.417 14.6562 121.495 14.2031 119.98 14.2031C115.495 14.2031 113.253 17.1797 113.253 23.1328C113.253 26.0391 113.808 28.2266 114.917 29.6953C116.042 31.1484 117.683 31.875 119.839 31.875C122.292 31.875 124.613 31.2656 126.8 30.0469V34.8516C125.816 35.4297 124.761 35.8438 123.636 36.0938C122.527 36.3438 121.175 36.4688 119.581 36.4688ZM138.162 36H132.654V10.0781H138.162V36ZM132.326 3.21094C132.326 2.22656 132.591 1.46875 133.122 0.9375C133.669 0.40625 134.443 0.140625 135.443 0.140625C136.412 0.140625 137.162 0.40625 137.693 0.9375C138.24 1.46875 138.513 2.22656 138.513 3.21094C138.513 4.14844 138.24 4.89062 137.693 5.4375C137.162 5.96875 136.412 6.23438 135.443 6.23438C134.443 6.23438 133.669 5.96875 133.122 5.4375C132.591 4.89062 132.326 4.14844 132.326 3.21094ZM158.968 36.4688C155.687 36.4688 153.14 35.2891 151.328 32.9297H151C151.218 35.1172 151.328 36.4453 151.328 36.9141V47.5312H145.82V10.0781H150.273C150.398 10.5625 150.656 11.7188 151.047 13.5469H151.328C153.047 10.9219 155.625 9.60938 159.062 9.60938C162.297 9.60938 164.812 10.7812 166.609 13.125C168.422 15.4688 169.328 18.7578 169.328 22.9922C169.328 27.2266 168.406 30.5312 166.562 32.9062C164.734 35.2812 162.203 36.4688 158.968 36.4688ZM157.633 14.1094C155.445 14.1094 153.843 14.75 152.828 16.0312C151.828 17.3125 151.328 19.3594 151.328 22.1719V22.9922C151.328 26.1484 151.828 28.4375 152.828 29.8594C153.828 31.2656 155.461 31.9688 157.726 31.9688C159.633 31.9688 161.101 31.1875 162.133 29.625C163.164 28.0625 163.679 25.8359 163.679 22.9453C163.679 20.0391 163.164 17.8438 162.133 16.3594C161.117 14.8594 159.617 14.1094 157.633 14.1094ZM191.705 36L190.603 32.3906H190.416C189.166 33.9688 187.908 35.0469 186.643 35.625C185.377 36.1875 183.752 36.4688 181.768 36.4688C179.221 36.4688 177.228 35.7812 175.791 34.4062C174.369 33.0312 173.658 31.0859 173.658 28.5703C173.658 25.8984 174.65 23.8828 176.635 22.5234C178.619 21.1641 181.643 20.4219 185.705 20.2969L190.182 20.1562V18.7734C190.182 17.1172 189.791 15.8828 189.01 15.0703C188.244 14.2422 187.049 13.8281 185.424 13.8281C184.096 13.8281 182.822 14.0234 181.603 14.4141C180.385 14.8047 179.213 15.2656 178.088 15.7969L176.307 11.8594C177.713 11.125 179.252 10.5703 180.924 10.1953C182.596 9.80469 184.174 9.60938 185.658 9.60938C188.955 9.60938 191.439 10.3281 193.111 11.7656C194.799 13.2031 195.643 15.4609 195.643 18.5391V36H191.705ZM183.502 32.25C185.502 32.25 187.103 31.6953 188.307 30.5859C189.525 29.4609 190.135 27.8906 190.135 25.875V23.625L186.807 23.7656C184.213 23.8594 182.322 24.2969 181.135 25.0781C179.963 25.8438 179.377 27.0234 179.377 28.6172C179.377 29.7734 179.721 30.6719 180.408 31.3125C181.096 31.9375 182.127 32.25 183.502 32.25ZM207.848 25.5938H203.77L202.551 1.73438H209.043L207.848 25.5938ZM202.27 33.0703C202.27 31.9141 202.574 31.0391 203.184 30.4453C203.793 29.8359 204.66 29.5312 205.785 29.5312C206.895 29.5312 207.746 29.8438 208.34 30.4688C208.934 31.0938 209.231 31.9609 209.231 33.0703C209.231 34.1797 208.926 35.0625 208.317 35.7188C207.723 36.3594 206.879 36.6797 205.785 36.6797C204.676 36.6797 203.809 36.3672 203.184 35.7422C202.574 35.1172 202.27 34.2266 202.27 33.0703Z" fill="white"/>
</svg>
