<svg width="111" height="34" viewBox="0 0 111 34" fill="none" xmlns="http://www.w3.org/2000/svg">
<path fill-rule="evenodd" clip-rule="evenodd" d="M75.4045 12.982H78.4793L79.3079 15.5465H80.5986L77.5936 6.83015H76.7412L73.4588 15.5465H74.5408L75.4045 12.982ZM76.9941 8.1238H77.0162C77.4194 9.69294 77.8107 10.9008 78.2139 12.1093H75.7153C76.1531 10.9008 76.5796 9.69294 76.9941 8.1238ZM76.2068 18.4359L72.9733 27.0217H74.0392L74.8897 24.4955H77.9199L78.7358 27.0217H80.0063L77.0448 18.4359H76.2068ZM75.1975 23.6365C75.6282 22.4455 76.0469 21.2558 76.4555 19.7107H76.4776C76.8748 21.2558 77.2613 22.4462 77.6586 23.6365H75.1975ZM73.1892 18.4359H66.9959V19.2949H69.5363V27.0217H70.6368V19.2949H73.1892V18.4359ZM54.9721 18.4359H52.9751V27.0217H54.0762V19.2949H54.8361C56.0154 19.2949 56.5027 19.981 56.5027 20.9258C56.5027 22.2025 55.8328 22.8152 54.7675 22.8757L54.4055 22.8887V23.6729H54.755C56.5367 23.6729 57.6825 22.3611 57.6825 20.9121C57.6831 19.2455 56.65 18.4359 54.9721 18.4359ZM45.948 12.982H49.0234L49.8525 15.5465H51.1415L48.1365 6.83015H47.2841L44.0017 15.5465H45.0855L45.948 12.982ZM47.5388 8.1238H47.5597C47.9629 9.69294 48.3542 10.9008 48.7574 12.1093H46.2587C46.6972 10.9008 47.123 9.69294 47.5388 8.1238ZM41.2841 15.6953C42.3214 15.6953 43.277 15.297 43.818 14.8981L43.3813 14.1768C42.9089 14.5258 42.2182 14.8253 41.342 14.8253C39.58 14.8253 38.1765 13.3426 38.1765 11.1386C38.1765 9.09647 39.3497 7.55202 41.342 7.55202C42.2063 7.55202 43.0694 7.975 43.4493 8.31157L43.9104 7.56566C43.3807 7.11604 42.5743 6.68006 41.4231 6.68006C38.5325 6.68006 36.9429 8.97237 36.9429 11.1633C36.9435 13.5654 38.4049 15.6953 41.2841 15.6953ZM40.0321 18.4359H37.4917V27.0217H39.8508C42.6632 27.0217 44.3429 25.3174 44.3429 22.4722C44.3429 20.4105 43.2304 18.4359 40.0321 18.4359ZM39.8174 26.1634H38.5928V19.2949H40.0554C42.143 19.2949 43.129 20.5333 43.129 22.4462C43.1284 24.9601 42.0512 26.1634 39.8174 26.1634ZM47.6664 22.925H50.4222V22.0674H47.6664V19.2956H50.4788V18.4359H46.5659V27.0217H50.9679V26.164H47.6664V22.925ZM64.613 23.8451C64.613 25.0718 64.1132 26.3473 62.6279 26.3473C61.2101 26.3473 60.5975 25.4155 60.5975 23.6365V18.4359H59.497V23.6853C59.497 25.8931 60.3929 27.1685 62.6279 27.1685C64.5444 27.1685 65.6449 25.795 65.6449 23.8691V18.4359H64.613V23.8451ZM62.3691 12.982H65.4439L66.273 15.5465H67.5626L64.5569 6.83015H63.7046L60.4221 15.5465H61.5042L62.3691 12.982ZM63.9581 8.1238H63.9819C64.3852 9.69294 64.7764 10.9008 65.1779 12.1093H62.681C63.1176 10.9008 63.5435 9.69294 63.9581 8.1238ZM95.1193 15.6953C97.6067 15.6953 99.1497 13.6408 99.1497 11.0386C99.1497 8.59811 97.4462 6.67941 95.1193 6.67941C92.7925 6.67941 91.0883 8.59811 91.0883 11.0386C91.0883 13.6408 92.632 15.6953 95.1193 15.6953ZM95.1193 7.55137C97.1104 7.55137 97.9168 9.4064 97.9168 11.0386C97.9168 12.7448 97.2034 14.8253 95.1193 14.8253C93.0335 14.8253 92.3201 12.7455 92.3201 11.0386C92.3201 9.4064 93.1265 7.55137 95.1193 7.55137ZM90.7197 10.9255C90.7197 8.83397 89.5912 6.83015 86.3421 6.83015H83.7648V15.5465H86.1596C89.0162 15.5459 90.7197 13.8149 90.7197 10.9255ZM84.8808 14.6739V7.70081H86.366C88.4853 7.70081 89.4868 8.95807 89.4868 10.9002C89.4868 13.4543 88.3934 14.6733 86.1244 14.6733H84.8808V14.6739ZM69.185 11.9352H70.372L72.2366 15.6953L73.3651 15.323L71.3628 11.6123C72.134 11.0769 72.7096 10.3531 72.7096 9.07178C72.7096 7.56501 71.6849 6.8308 70.3726 6.8308H68.0684V15.5472H69.1856V11.9352H69.185ZM69.185 7.70081H70.1406C70.8892 7.70081 71.5119 8.11145 71.5119 9.18158C71.5119 9.91645 71.247 11.0626 69.8191 11.0626H69.185V7.70081ZM47.5597 4.97317L48.7013 6.18105H49.3801L47.9426 4.28898H47.1922L45.7535 6.18105H46.421L47.5597 4.97317ZM88.3994 22.4715C88.3994 20.4105 87.2887 18.4359 84.0892 18.4359H81.5476V27.0217H83.9079C86.7209 27.0217 88.3994 25.3168 88.3994 22.4715ZM82.6488 26.1634V19.2949H84.1119C86.1996 19.2949 87.1856 20.5333 87.1856 22.4462C87.1856 24.9607 86.1089 26.1634 83.8745 26.1634H82.6488ZM102.352 22.1765C101.33 21.3793 100.844 20.9251 100.844 20.3118C100.844 19.6503 101.285 19.1468 102.079 19.1468C102.556 19.1468 103.066 19.4541 103.452 19.7601L103.974 19.1468C103.531 18.6075 102.841 18.2891 102.011 18.2891C100.776 18.2891 99.7421 19.1591 99.7421 20.3124C99.7421 21.5268 100.48 22.055 101.138 22.6073C101.785 23.1213 102.976 23.8197 102.976 24.8996C102.976 25.8561 102.375 26.3096 101.592 26.3096C100.844 26.3096 100.333 25.9178 99.8679 25.5617L99.3806 26.2738C99.9478 26.8749 100.855 27.1685 101.616 27.1685C102.887 27.1685 104.077 26.2868 104.077 24.9243C104.077 23.8198 103.441 23.0349 102.352 22.1765ZM94.0934 18.2891C91.8035 18.2891 90.1238 20.1779 90.1238 22.582C90.1238 25.1465 91.6442 27.1685 94.0934 27.1685C96.5449 27.1685 98.0648 25.1465 98.0648 22.582C98.0648 20.1773 96.3851 18.2891 94.0934 18.2891ZM94.0934 26.3096C92.0409 26.3096 91.3377 24.2609 91.3377 22.582C91.3377 20.9758 92.1322 19.1474 94.0934 19.1474C96.0552 19.1474 96.8509 20.9765 96.8509 22.582C96.8509 24.2609 96.1465 26.3096 94.0934 26.3096ZM52.5462 8.44737H52.5689C52.8809 9.59352 54.5504 13.3172 55.5525 15.5465H56.0004C57.0842 13.3179 58.9148 9.46942 59.2375 8.44737H59.2602V15.5465H60.378V6.8295H59.3288C58.2015 9.14455 57.0616 11.4739 55.9211 13.9267C54.8964 11.4739 53.8585 9.14455 52.8236 6.8295H51.6253V15.5459H52.5468V8.44737H52.5462ZM101.543 14.8246C100.784 14.8246 100.265 14.4257 99.7933 14.0631L99.2989 14.7863C99.8739 15.3958 100.794 15.6947 101.567 15.6947C102.856 15.6947 104.065 14.798 104.065 13.4166C104.065 12.2952 103.42 11.4986 102.315 10.6266C101.279 9.81704 100.784 9.35637 100.784 8.73456C100.784 8.06142 101.233 7.55137 102.038 7.55137C102.523 7.55137 103.041 7.8626 103.432 8.17448L103.962 7.55137C103.512 7.00363 102.81 6.67941 101.97 6.67941C100.714 6.67941 99.6675 7.56501 99.6675 8.73456C99.6675 9.96713 100.416 10.5025 101.082 11.0633C101.74 11.5863 102.95 12.2958 102.95 13.3919C102.95 14.362 102.339 14.8246 101.543 14.8246ZM0 34H111V0H0V34ZM1.12019 13.1288H2.80763V13.7714L1.12019 13.7708V13.1288ZM1.12019 14.3997H2.80703V24.6995H1.12019V14.3997ZM30.2218 32.7876H1.11959V26.8586H30.2218V32.7876ZM30.2218 18.8589H9.45003C11.4005 20.9687 15.4697 23.9341 19.0736 24.7008H6.08767V3.60805H2.80763V12.492H1.12019V1.21568H30.2218V18.8589ZM109.879 32.7791H31.3116V1.21243H109.879V32.7791Z" fill="white"/>
</svg>
